<?xml version="1.0" standalone="no"?>
<!DOCTYPE svg PUBLIC "-//W3C//DTD SVG 20010904//EN"
 "http://www.w3.org/TR/2001/REC-SVG-20010904/DTD/svg10.dtd">
<svg version="1.0" xmlns="http://www.w3.org/2000/svg"
 width="1500.000000pt" height="1500.000000pt" viewBox="0 0 1500.000000 1500.000000"
 preserveAspectRatio="xMidYMid meet">
<metadata>
Created by potrace 1.11, written by Peter Selinger 2001-2013
</metadata>
<g transform="translate(0.000000,1500.000000) scale(0.100000,-0.100000)"
fill="#000000" stroke="none">
<path d="M7055 14934 c-714 -50 -1314 -167 -1930 -376 -972 -329 -1837 -835
-2610 -1529 -265 -238 -621 -616 -846 -899 -743 -935 -1255 -2046 -1479 -3210
-36 -188 -75 -446 -89 -595 -6 -60 -16 -152 -21 -202 -5 -51 -14 -214 -20
-361 -32 -865 90 -1742 356 -2564 674 -2081 2248 -3775 4279 -4603 136 -55
351 -135 445 -165 196 -63 273 -86 420 -126 1214 -328 2495 -343 3725 -44 184
45 601 167 675 199 14 5 75 28 135 50 61 22 137 51 170 64 111 45 306 128 323
137 9 6 82 41 162 78 490 231 1060 595 1500 960 262 217 630 573 850 821 627
709 1127 1562 1443 2466 213 608 334 1184 397 1890 18 201 24 719 11 955 -59
1071 -315 2033 -791 2975 -366 723 -809 1335 -1384 1911 -636 635 -1341 1126
-2164 1505 -588 270 -1123 436 -1857 573 -97 18 -357 52 -555 73 -136 13
-1007 27 -1145 17z m755 -564 c877 -38 1713 -236 2514 -594 2154 -965 3677
-2988 4000 -5314 14 -97 28 -208 31 -247 4 -38 8 -86 11 -105 29 -269 29 -934
-1 -1235 -88 -889 -311 -1675 -690 -2435 -341 -684 -763 -1270 -1305 -1810
-543 -542 -1114 -952 -1805 -1297 -1259 -629 -2697 -852 -4105 -637 -1170 178
-2283 661 -3210 1392 -381 301 -815 731 -1117 1107 -1184 1476 -1703 3356
-1447 5245 85 627 271 1279 531 1860 488 1090 1264 2048 2232 2755 900 657
1960 1091 3051 1249 156 23 239 32 445 52 216 21 572 26 865 14z"/>
<path d="M7135 13910 c-816 -58 -1512 -224 -2199 -524 -1543 -675 -2764 -1931
-3393 -3491 -524 -1298 -607 -2773 -231 -4115 64 -226 79 -274 148 -465 430
-1184 1185 -2202 2193 -2959 1536 -1152 3494 -1552 5377 -1100 969 233 1878
699 2659 1363 189 160 543 515 706 706 1176 1383 1708 3153 1490 4960 -200
1655 -1047 3172 -2358 4223 -991 795 -2161 1266 -3447 1388 -188 17 -775 27
-945 14z m-73 -1208 c2 -4 25 -23 51 -42 62 -44 76 -94 42 -146 -26 -40 -85
-24 -114 33 -17 33 -15 163 3 163 8 0 16 -4 18 -8z m743 -54 c-8 -72 -33 -134
-64 -162 -13 -12 -41 -21 -75 -24 -52 -4 -55 -3 -70 26 -20 39 -20 55 0 98 18
38 57 64 135 89 30 10 58 21 64 26 16 16 17 10 10 -53z m-371 -89 c30 -35 33
-74 9 -101 -20 -22 -31 -23 -55 -1 -21 18 -24 69 -6 108 14 32 21 32 52 -6z
m-84 16 c0 -13 -77 -88 -98 -96 -28 -11 -62 4 -62 27 0 9 13 29 29 45 25 24
37 29 80 29 28 0 51 -2 51 -5z m1440 -85 c13 -50 6 -75 -27 -97 -24 -16 -26
-16 -39 2 -21 29 -17 70 12 104 14 17 30 31 35 31 4 0 13 -18 19 -40z m-2195
-10 c15 -32 16 -45 7 -65 -13 -29 -28 -31 -54 -8 -21 19 -23 51 -6 88 16 36
32 31 53 -15z m253 20 c22 0 12 -25 -31 -74 -40 -46 -46 -49 -89 -49 -55 0
-78 15 -78 53 0 60 63 94 145 78 22 -4 46 -7 53 -8z m1142 -89 c-1 -14 -10
-37 -21 -51 l-21 -25 -24 28 c-32 37 -30 59 8 102 l31 36 14 -31 c7 -18 13
-44 13 -59z m-1657 0 c32 -58 34 -98 7 -150 -18 -36 -72 -91 -89 -91 -10 0
-46 40 -60 67 -6 12 -11 43 -11 68 0 44 4 50 56 101 31 30 60 54 64 54 4 0 19
-22 33 -49z m1507 -37 c0 -54 -34 -72 -72 -37 -22 20 -23 42 -2 91 l16 37 29
-35 c16 -19 29 -44 29 -56z m-695 59 c-18 -40 -17 -153 0 -220 21 -78 89 -233
103 -233 6 0 13 12 17 28 3 15 35 86 71 158 35 72 64 134 64 138 0 3 -14 6
-31 6 -17 0 -39 5 -49 10 -20 11 -48 85 -36 97 14 15 91 -22 104 -50 14 -29
32 -28 32 3 0 10 5 22 12 26 8 5 10 -8 5 -50 -4 -40 -21 -88 -58 -164 -44 -89
-53 -118 -57 -175 -4 -69 3 -96 49 -177 11 -19 29 -54 39 -77 11 -24 23 -43
28 -43 12 0 44 197 72 445 11 102 33 193 51 209 8 8 10 6 6 -9 -10 -40 -17
-92 -27 -213 -5 -67 -13 -140 -16 -162 -7 -41 11 -58 22 -22 16 46 62 133 101
189 24 34 43 64 43 67 0 3 -13 6 -29 6 -35 0 -71 40 -71 79 0 51 13 103 27
108 19 8 90 -62 96 -95 3 -14 1 -37 -4 -50 -14 -35 -5 -38 33 -9 18 14 47 30
63 36 28 10 28 9 -10 -21 -185 -148 -285 -360 -320 -678 -25 -234 -45 -339
-82 -430 -29 -72 -116 -235 -155 -292 -23 -32 0 -30 79 8 273 131 321 213 252
434 -52 164 -62 250 -36 297 11 19 12 14 14 -40 1 -43 17 -111 52 -222 28 -87
51 -172 51 -187 0 -15 4 -28 9 -28 10 0 81 82 99 115 11 18 11 18 12 -9 0 -42
-54 -135 -118 -204 -57 -61 -170 -141 -250 -176 -49 -22 -52 -35 -14 -63 34
-25 72 -101 79 -156 l5 -42 -27 50 c-15 28 -36 61 -48 73 -52 57 -147 78 -206
48 -97 -51 -134 -168 -107 -341 19 -118 77 -355 87 -355 4 0 10 13 14 28 10
47 42 90 83 111 44 22 158 51 203 51 29 0 30 -1 23 -32 -3 -18 -20 -67 -35
-108 -49 -128 -148 -194 -213 -145 -21 16 -56 20 -56 8 0 -18 128 -258 160
-301 44 -58 97 -80 144 -60 36 14 176 154 219 218 16 25 38 54 47 65 22 25 60
152 60 199 0 47 -29 76 -74 76 -26 0 -41 -8 -66 -36 -17 -20 -37 -48 -43 -63
-14 -32 -78 -123 -83 -118 -11 11 73 192 107 231 21 24 39 48 39 53 0 20 -75
34 -220 40 -93 3 -165 11 -180 18 -35 18 -66 55 -74 89 l-7 29 36 -31 c44 -39
46 -40 232 -46 l151 -4 -20 45 c-31 71 -22 144 36 283 65 158 64 150 29 150
-17 0 -37 8 -46 18 -22 24 -44 109 -31 122 16 16 97 -30 113 -63 7 -16 17 -25
21 -20 5 4 27 56 49 115 94 248 103 356 47 548 -18 63 -37 114 -42 113 -5 -1
-24 -8 -41 -15 -29 -11 -36 -10 -60 8 -31 22 -75 100 -71 124 4 20 69 14 131
-12 39 -17 53 -30 73 -70 95 -187 116 -419 56 -605 -12 -38 -3 -42 24 -12 28
31 136 107 178 124 45 19 46 33 2 32 -40 -1 -96 34 -121 75 -23 39 -29 150
-13 227 8 36 18 66 24 68 14 5 154 -112 183 -153 35 -49 41 -130 11 -164 -12
-13 -17 -26 -11 -28 11 -4 101 58 149 102 35 32 92 108 92 123 0 4 -27 8 -59
8 -70 0 -106 21 -134 78 -20 40 -49 195 -37 202 4 2 44 -10 90 -27 96 -37 160
-89 160 -131 0 -30 15 -44 24 -21 16 41 0 167 -29 229 -25 56 -27 80 -8 97 18
16 35 22 63 19 15 -1 90 -62 90 -73 0 -13 -72 -30 -101 -24 -21 4 -29 2 -29
-9 0 -7 5 -17 11 -21 6 -3 20 -27 30 -52 25 -58 27 -160 5 -225 -51 -152 -116
-216 -381 -380 -112 -69 -163 -112 -220 -187 -56 -73 -57 -87 -7 -82 32 3 42
-2 71 -32 41 -42 35 -53 -31 -62 -44 -6 -49 -4 -76 26 -16 17 -32 28 -35 23
-45 -74 -117 -240 -117 -267 0 -28 16 -17 34 24 21 47 46 66 124 92 56 19 172
36 172 26 0 -14 -54 -167 -70 -198 -49 -97 -160 -132 -222 -70 -16 17 -34 30
-39 30 -11 0 -11 2 4 -40 21 -58 37 -82 108 -158 37 -40 74 -89 81 -108 6 -18
15 -34 19 -34 3 0 14 39 23 88 43 219 50 250 71 297 25 56 53 100 109 168 21
26 37 49 35 51 -2 1 -22 13 -45 25 -80 45 -95 118 -43 214 17 31 34 57 38 57
16 0 90 -89 97 -114 7 -29 1 -91 -10 -118 -15 -35 19 -18 89 43 39 33 72 64
73 70 2 5 -12 9 -32 9 -49 0 -86 48 -86 112 0 46 32 154 51 173 13 13 80 -62
110 -123 19 -39 20 -48 10 -84 -15 -49 -10 -56 26 -33 36 23 153 142 153 155
0 6 -15 10 -34 10 -54 0 -85 33 -101 110 -23 106 -24 104 67 63 60 -27 88 -59
88 -103 0 -75 61 75 84 208 l6 32 -38 -6 c-57 -9 -88 24 -97 105 -4 34 -5 65
-1 68 9 9 68 -19 103 -50 19 -16 37 -26 41 -22 4 3 7 57 7 118 0 101 -3 119
-29 182 -75 179 -174 265 -306 265 -98 0 -175 -52 -276 -185 -81 -108 -92
-120 -99 -114 -7 8 65 114 139 206 27 35 72 79 100 98 74 50 116 54 236 19
l25 -7 -25 28 c-35 39 -133 83 -202 91 -82 9 -63 28 20 21 90 -9 172 -50 258
-131 40 -36 74 -66 77 -66 3 0 5 21 6 48 0 67 39 166 91 232 27 35 25 13 -5
-39 -27 -47 -25 -70 3 -34 20 26 96 62 130 63 13 0 47 -11 75 -25 55 -26 167
-109 167 -124 0 -12 -108 -62 -183 -86 -50 -15 -64 -16 -99 -5 -49 14 -108 69
-108 99 0 46 -19 17 -30 -47 -11 -58 -10 -79 5 -147 10 -44 20 -84 22 -88 3
-5 13 8 23 30 9 21 26 46 37 55 28 25 152 80 164 72 11 -6 7 -50 -12 -135 -13
-60 -53 -99 -108 -106 -26 -4 -46 -1 -56 7 -25 21 -26 7 -5 -76 32 -126 21
-348 -24 -496 -11 -37 -11 -48 -2 -48 14 0 176 163 176 176 0 5 23 10 51 11
46 2 54 -1 92 -37 l42 -39 -28 -10 c-61 -23 -121 -6 -140 41 -7 15 -5 16 -98
-110 -72 -97 -231 -260 -384 -391 -161 -138 -211 -189 -257 -259 -39 -60 -98
-212 -98 -253 0 -64 -62 -300 -85 -323 -8 -8 -15 -19 -15 -24 0 -16 -44 -105
-62 -127 -9 -11 -52 -63 -95 -116 -43 -53 -94 -116 -114 -140 -41 -49 -129
-203 -129 -225 0 -24 20 -15 31 13 5 15 84 100 174 189 113 112 170 176 184
208 12 25 21 49 21 54 0 5 10 24 23 43 12 19 31 59 41 89 58 167 164 328 269
408 28 20 29 42 3 42 -23 0 -58 48 -63 88 -4 33 2 56 32 121 21 45 41 81 45
81 11 0 36 -32 69 -88 32 -55 40 -107 20 -143 -17 -33 -6 -39 37 -19 23 11 63
25 90 32 27 7 51 14 53 15 3 2 -7 16 -21 31 -64 68 -75 139 -35 220 32 63 98
152 113 152 20 0 104 -193 104 -240 0 -49 -32 -112 -66 -130 -37 -20 -17 -31
44 -26 32 3 92 8 135 12 42 3 77 10 77 15 0 5 -7 9 -15 9 -30 0 -72 29 -83 57
-6 15 -14 46 -17 68 -4 22 -9 48 -12 58 -6 25 28 22 85 -7 74 -37 86 -56 79
-121 -6 -62 -3 -64 58 -36 80 37 134 117 135 201 0 101 -72 243 -157 309 -14
12 -24 24 -20 27 10 11 72 -29 124 -82 67 -67 92 -121 93 -196 0 -65 11 -73
33 -25 66 142 78 171 83 195 l5 27 -64 0 c-56 0 -69 4 -92 25 -34 31 -41 49
-50 128 l-7 62 34 0 c90 0 139 -36 169 -122 10 -29 21 -52 26 -51 22 6 29 160
12 263 -6 36 -12 74 -13 85 -1 11 -19 55 -39 97 -39 80 -45 108 -24 108 8 0
11 15 9 51 -7 92 35 144 162 205 82 40 92 41 101 14 11 -36 -14 -201 -38 -244
-31 -56 -89 -88 -144 -81 -24 4 -43 3 -43 0 0 -3 9 -25 20 -48 53 -109 85
-327 62 -426 -6 -25 -9 -48 -6 -52 5 -8 164 148 162 159 -1 4 -15 12 -31 17
-34 11 -67 64 -67 108 0 25 43 164 55 175 8 8 63 -48 97 -98 27 -40 29 -51 24
-99 l-5 -55 54 55 c42 41 63 74 89 136 62 150 86 169 204 158 39 -4 72 -8 72
-9 0 -1 -7 -25 -15 -52 -26 -87 -103 -133 -201 -118 -24 3 -44 5 -44 3 0 -2
-4 -18 -9 -35 l-9 -32 38 5 c33 5 43 1 79 -32 22 -21 41 -43 41 -50 0 -18 -92
-30 -119 -16 -11 7 -28 25 -36 42 l-16 30 -29 -40 c-16 -22 -50 -55 -74 -73
-25 -18 -45 -36 -46 -39 0 -4 13 -9 29 -12 29 -6 91 -58 91 -76 0 -11 -54 -31
-85 -31 -27 0 -62 37 -67 70 -3 23 -10 18 -91 -64 -48 -49 -87 -93 -87 -98 0
-6 11 -7 25 -4 27 7 155 -45 155 -62 0 -6 -22 -24 -48 -41 -63 -40 -121 -42
-158 -6 -14 14 -28 25 -33 25 -8 0 -84 -129 -97 -165 -12 -31 -89 -137 -123
-169 -17 -17 -31 -33 -31 -37 0 -11 42 -18 215 -33 171 -15 239 -11 295 19 44
22 154 135 172 175 15 34 38 40 38 10 0 -23 -50 -118 -87 -167 -39 -50 -105
-85 -205 -107 -16 -4 -28 -10 -28 -14 0 -19 147 -133 183 -143 41 -11 117 -4
117 11 0 5 -13 22 -30 38 -34 34 -40 84 -16 130 22 42 124 138 135 127 12 -13
41 -125 41 -161 0 -15 -9 -38 -21 -50 -12 -12 -18 -27 -14 -33 4 -7 34 13 76
49 38 33 72 60 75 60 14 0 -30 -61 -74 -102 -54 -51 -121 -88 -194 -108 -27
-7 -48 -16 -48 -21 0 -4 25 -23 56 -42 59 -37 156 -60 224 -53 73 7 136 19
154 28 10 6 22 6 27 1 5 -5 -20 -17 -61 -28 l-70 -19 21 -22 c20 -21 45 -111
34 -122 -10 -10 -60 11 -87 38 -22 23 -29 37 -26 61 l3 32 -55 4 c-122 7 -222
56 -438 217 -96 71 -145 101 -175 107 -23 4 -134 11 -247 15 -405 13 -630 -51
-771 -219 -63 -76 -98 -144 -144 -285 -20 -61 -46 -128 -56 -149 -10 -20 -19
-44 -20 -53 -1 -18 -20 -48 -76 -121 -118 -151 -362 -483 -359 -486 2 -2 28
14 57 36 30 23 92 61 139 85 87 45 283 116 320 116 28 0 25 12 -9 38 -45 33
-75 104 -67 160 6 48 64 163 98 197 19 19 20 19 31 2 7 -10 22 -30 34 -44 12
-15 29 -45 38 -67 9 -23 21 -49 26 -58 17 -33 11 -113 -11 -138 -20 -23 -19
-43 3 -34 25 11 129 141 153 191 24 52 49 152 39 161 -3 3 -13 -2 -23 -11 -24
-22 -90 -22 -120 -1 -34 24 -59 82 -65 157 -4 37 -4 67 0 67 16 0 103 -36 103
-42 0 -5 11 -8 24 -8 26 0 56 -33 56 -61 0 -17 27 -46 35 -37 2 2 7 26 10 54
9 78 15 105 41 179 39 109 78 149 48 50 -30 -100 -54 -209 -54 -248 0 -45 13
-61 43 -53 37 9 127 50 127 57 0 4 -12 10 -26 13 -31 8 -57 64 -48 104 12 47
54 123 65 116 6 -3 24 -27 40 -52 30 -48 36 -89 19 -123 -23 -41 2 -41 95 1
85 38 136 60 141 60 3 0 30 19 61 43 59 43 118 103 141 141 12 19 12 18 6 -14
-7 -42 -49 -107 -75 -115 -10 -3 -21 -14 -24 -24 -5 -17 -174 -111 -199 -111
-6 0 -33 -11 -61 -25 -27 -13 -57 -25 -65 -25 -8 0 -37 -15 -65 -33 -27 -19
-62 -41 -77 -51 -31 -18 -38 -42 -10 -31 52 20 71 17 102 -14 18 -17 35 -31
39 -31 15 0 43 -39 38 -53 -6 -15 -71 -37 -112 -37 -39 0 -99 62 -93 95 12 63
-42 5 -81 -85 -38 -89 -62 -133 -88 -161 -13 -14 -21 -28 -18 -31 14 -13 279
53 415 104 190 71 380 178 316 178 -7 0 -25 12 -40 26 -20 21 -26 37 -26 69 0
45 15 71 81 138 63 63 82 47 94 -79 6 -61 5 -72 -14 -96 -12 -14 -21 -29 -21
-32 0 -11 21 -6 36 9 9 8 26 15 39 15 13 0 27 5 30 11 14 21 166 83 232 94 46
7 64 22 39 31 -23 9 -37 60 -25 92 12 31 97 122 116 122 12 0 26 -67 27 -126
0 -17 -9 -44 -19 -60 -11 -16 -19 -35 -20 -43 0 -12 -17 -21 -137 -65 -27 -10
-48 -22 -48 -26 0 -5 16 -12 36 -16 58 -11 107 -67 133 -151 29 -93 26 -109
-18 -105 -88 9 -211 67 -211 99 0 8 -7 25 -16 39 -12 17 -15 36 -10 64 3 22 3
40 -2 40 -21 0 -177 -87 -180 -100 -1 -8 8 -20 20 -25 13 -6 44 -41 70 -80 69
-104 86 -115 166 -115 46 0 92 8 142 25 238 81 253 85 329 85 61 0 82 -4 106
-21 28 -20 28 -20 5 -14 -14 4 -35 9 -47 12 -24 6 -102 -17 -263 -77 -71 -27
-136 -43 -200 -50 -52 -7 -115 -15 -140 -19 -45 -7 -45 -7 -43 -45 3 -36 30
-94 89 -188 16 -25 62 -62 136 -111 154 -101 158 -103 158 -77 0 48 51 110
105 127 33 11 70 2 144 -37 l43 -21 -34 -42 c-19 -23 -52 -51 -73 -61 -39 -19
-68 -18 -153 9 -38 12 -17 -16 45 -60 70 -50 137 -139 154 -205 11 -44 15 -49
33 -43 40 13 69 5 105 -31 43 -43 35 -56 -36 -59 -38 -1 -56 3 -72 17 -12 11
-22 17 -24 15 -16 -28 -37 -73 -37 -80 0 -6 9 -8 19 -4 12 4 29 -3 46 -18 22
-18 29 -35 33 -75 5 -60 -2 -64 -54 -31 -39 24 -54 47 -54 83 0 31 -6 32 -33
9 -11 -10 -18 -13 -15 -8 2 6 14 32 27 59 13 27 26 66 28 86 6 41 -16 112 -51
168 -28 44 -119 129 -156 146 -14 6 -27 13 -30 17 -3 3 -47 28 -99 55 -102 53
-179 121 -209 186 -26 56 -39 47 -46 -33 -4 -38 -14 -89 -22 -112 -18 -50 -99
-211 -125 -249 -11 -14 -19 -29 -19 -32 0 -3 20 -3 44 0 35 5 52 2 79 -15 30
-18 87 -80 87 -94 0 -11 -66 -27 -109 -27 -56 0 -90 24 -99 69 -4 17 -11 31
-17 29 -8 -2 -75 -151 -75 -166 0 -2 11 -1 25 2 49 12 77 -17 90 -91 6 -38 4
-43 -12 -43 -29 0 -83 38 -94 66 -5 15 -12 24 -15 21 -13 -12 -3 -139 16 -215
28 -110 37 -132 55 -132 25 0 72 -28 80 -47 7 -19 34 -122 35 -135 1 -27 -128
26 -154 63 -19 27 -21 71 -5 97 9 15 6 26 -16 60 -14 22 -29 60 -32 84 -3 24
-12 52 -19 63 -31 44 -3 207 61 360 9 22 43 95 76 163 32 67 59 126 59 130 0
4 6 19 14 34 25 48 46 177 46 285 0 79 -3 104 -12 101 -7 -3 -14 -16 -16 -31
-2 -15 -17 -38 -35 -53 -30 -26 -35 -26 -130 -22 -54 3 -103 10 -109 16 -8 8
2 26 37 68 82 95 126 112 200 74 21 -11 41 -18 43 -15 10 9 -45 100 -71 119
-22 16 -43 21 -91 20 -63 -1 -123 -25 -303 -121 -51 -28 -69 -53 -36 -53 37 0
100 -41 120 -78 27 -47 65 -174 55 -184 -7 -6 -85 10 -166 34 -79 24 -135 114
-108 173 6 13 8 25 6 28 -3 3 -46 -12 -95 -33 -49 -22 -114 -46 -144 -55 -30
-8 -55 -19 -55 -24 0 -5 19 -11 43 -15 168 -27 335 -143 401 -278 78 -162 72
-365 -16 -494 -34 -49 -52 -51 -21 -1 36 57 63 165 63 251 0 126 -56 262 -128
311 -46 32 -53 31 -50 -2 4 -62 -4 -86 -57 -163 -30 -44 -64 -99 -75 -120 -11
-22 -23 -40 -26 -40 -14 0 9 70 48 149 58 117 80 221 47 221 -5 0 -9 -11 -9
-25 0 -63 -51 -105 -128 -105 -41 0 -142 17 -150 25 -9 9 79 116 111 136 37
22 92 24 127 4 34 -19 43 -18 31 4 -6 10 -36 29 -68 42 -80 33 -247 32 -377
-3 -100 -26 -125 -48 -54 -48 95 0 150 -72 165 -217 3 -35 4 -63 1 -63 -10 0
-154 52 -179 66 -16 8 -40 30 -55 49 -23 31 -26 42 -22 90 3 30 2 55 -1 55
-11 0 -95 -71 -133 -113 -171 -186 -268 -465 -268 -772 0 -95 14 -242 30 -310
24 -107 52 -223 60 -250 5 -16 20 -66 34 -110 13 -44 34 -114 46 -155 12 -41
25 -86 30 -100 8 -22 20 -70 50 -190 15 -64 40 -204 49 -285 11 -93 9 -98 -64
-115 -305 -71 -337 -74 -595 -62 -234 12 -314 26 -324 60 -3 10 10 94 30 187
59 284 129 679 153 870 45 343 6 608 -121 842 -111 205 -360 487 -532 603 -66
45 -141 71 -183 64 -84 -14 -143 -117 -143 -250 0 -83 38 -144 204 -329 196
-218 240 -300 204 -380 -6 -14 -15 -25 -19 -25 -5 0 -17 -10 -29 -22 -11 -12
-23 -18 -27 -14 -5 4 -1 13 8 19 9 7 19 28 22 47 12 62 -43 155 -184 315 -196
222 -225 266 -236 356 -3 27 -10 49 -15 49 -4 0 -19 -24 -32 -52 -107 -239
-146 -297 -301 -454 -199 -200 -311 -261 -462 -252 -96 6 -113 23 -25 24 86 2
168 35 273 110 119 86 119 86 75 134 -41 46 -44 60 -17 84 38 34 79 -13 66
-74 -4 -18 -3 -30 4 -30 14 0 166 172 205 233 18 28 71 129 118 223 107 215
164 293 257 355 14 8 21 20 18 26 -7 10 -93 45 -178 72 -54 17 -209 14 -255
-5 -91 -38 -134 -91 -134 -168 0 -53 7 -71 77 -194 54 -94 61 -112 43 -112 -5
0 -10 6 -10 13 0 6 -32 59 -70 117 -39 58 -76 124 -82 148 -6 23 -14 42 -19
42 -5 0 -26 -33 -49 -72 -22 -40 -40 -65 -40 -56 0 27 30 98 67 156 18 29 33
56 33 61 0 23 -285 -11 -343 -40 -107 -55 -185 -154 -206 -260 -18 -90 -20
-94 -33 -81 -16 16 15 142 54 214 32 60 98 127 153 156 45 23 124 42 177 42
26 0 50 5 53 10 4 6 -5 24 -19 41 -38 45 -34 59 18 59 37 0 48 -5 66 -27 12
-15 19 -35 17 -45 -3 -10 -2 -20 3 -23 17 -10 272 84 271 100 -1 18 -92 26
-281 27 -193 1 -195 2 -50 35 104 24 384 24 490 0 166 -37 273 -75 388 -137
41 -22 76 -40 79 -40 3 0 2 12 -1 26 -7 26 20 114 34 114 8 0 41 -38 58 -69
17 -29 1 -74 -30 -88 -20 -9 -14 -15 63 -73 111 -85 236 -196 392 -349 70 -69
132 -128 138 -130 19 -6 -13 155 -42 212 -28 53 -130 155 -234 232 -44 33
-116 93 -160 135 -44 41 -98 90 -121 107 -98 77 -330 175 -434 185 -28 2 -35
-1 -38 -17 -5 -26 -21 -45 -39 -45 -10 0 -13 10 -11 37 l3 38 -60 8 c-82 10
-252 9 -355 -4 -106 -13 -330 -48 -339 -54 -4 -2 -13 0 -21 5 -17 11 -18 10
89 43 41 12 76 27 78 32 1 6 -18 19 -45 29 -64 26 -184 94 -198 112 -16 20
-38 18 -29 -3 21 -48 -4 -95 -59 -112 -55 -17 -127 -20 -132 -6 -7 18 41 111
68 129 12 9 42 16 67 16 l44 0 -59 54 -59 54 -7 -27 c-16 -57 -78 -88 -180
-90 -37 -1 -36 19 3 87 31 55 84 90 116 78 35 -14 30 9 -12 63 -25 32 -57 69
-70 81 -14 13 -25 27 -25 32 0 20 52 -22 151 -122 150 -151 293 -257 399 -295
79 -29 150 -35 375 -36 240 0 248 -1 560 -88 60 -16 112 -28 114 -25 3 3 0 13
-7 22 -7 9 -16 27 -21 39 -6 12 -16 25 -24 30 -15 8 -107 145 -107 158 0 14
-121 125 -135 125 -8 0 -15 4 -15 9 0 12 -115 67 -159 76 -18 4 -72 4 -119 0
l-85 -7 26 -24 c15 -13 31 -42 38 -63 11 -36 10 -42 -20 -85 -18 -25 -35 -46
-40 -46 -4 0 -29 -14 -55 -31 -62 -42 -71 -33 -71 76 0 82 1 85 34 119 26 27
31 37 20 41 -16 6 -155 -62 -206 -101 -48 -36 -40 -13 11 34 55 51 160 104
247 126 76 19 217 21 254 4 14 -6 28 -8 33 -4 23 24 -198 138 -303 156 -72 12
-272 16 -282 6 -4 -3 1 -14 10 -24 51 -56 21 -137 -77 -206 -35 -25 -66 -46
-69 -46 -8 0 -27 86 -27 125 0 46 23 100 49 117 33 21 25 34 -19 30 -51 -5
-53 15 -2 23 20 3 57 11 82 18 25 7 102 12 173 12 70 0 127 2 127 5 0 3 -16
14 -36 25 -20 11 -56 45 -80 76 -59 77 -125 133 -172 147 -82 25 -206 11 -366
-42 -43 -14 -86 -26 -95 -26 -21 0 104 60 201 96 43 16 77 32 75 36 -1 4 -22
18 -47 31 -68 36 -85 73 -84 185 0 51 5 97 11 103 16 16 172 -90 197 -132 29
-49 26 -113 -7 -147 -15 -16 -27 -31 -27 -35 0 -4 27 -4 60 0 63 6 136 -13
160 -43 14 -16 30 -19 30 -4 0 17 -113 181 -180 262 -61 73 -171 175 -222 206
-16 9 -28 20 -28 25 0 4 3 6 8 4 4 -3 32 -16 62 -30 71 -32 184 -144 269 -265
36 -51 69 -92 73 -92 13 0 9 157 -7 278 -23 173 -54 266 -110 326 -14 15 -23
31 -20 35 4 3 26 -14 49 -39 74 -78 114 -227 131 -480 8 -119 35 -231 74 -307
31 -59 77 -121 84 -113 2 3 16 31 30 63 18 39 34 60 51 67 31 12 33 21 6 38
-21 13 -45 60 -36 70 3 2 19 -7 36 -21 35 -30 61 -34 250 -42 74 -2 155 -10
179 -15 24 -6 46 -8 49 -5 12 11 -48 60 -148 120 -138 83 -182 116 -215 160
-32 40 -26 59 8 28 28 -26 182 -123 262 -164 68 -35 160 -127 196 -194 13 -25
29 -45 35 -45 7 0 17 21 23 48 7 26 30 97 53 157 31 85 40 126 42 178 1 65 -1
70 -30 96 -21 19 -58 35 -115 50 -46 11 -117 37 -157 57 -70 35 -438 301 -429
310 6 6 75 -35 207 -123 143 -95 180 -116 187 -110 3 4 -13 43 -35 89 -23 46
-44 101 -47 123 -4 22 -11 54 -16 70 -5 17 -13 80 -18 140 -6 75 -17 135 -36
188 -30 89 -29 108 3 45 33 -65 53 -127 62 -193 45 -305 52 -334 102 -409 16
-26 49 -57 72 -71 45 -26 263 -105 270 -98 7 7 -4 72 -20 122 -20 61 -67 126
-149 203 -38 36 -67 69 -63 73 10 10 125 -63 158 -102 77 -87 113 -208 113
-378 0 -123 -6 -155 -64 -345 -18 -59 -23 -100 -23 -195 -1 -113 1 -123 26
-166 32 -55 165 -179 192 -179 7 0 16 -4 21 -9 9 -7 57 -24 164 -56 28 -8 30
-23 -24 180 -20 77 -45 178 -57 225 -11 47 -26 107 -34 134 -8 26 -14 64 -14
82 0 41 -14 44 -32 7 -14 -30 -61 -56 -120 -67 -45 -8 -47 -1 -17 71 29 70 97
106 129 68 7 -9 15 -13 17 -11 7 7 6 236 -1 243 -3 3 -12 0 -21 -7 -22 -18
-63 -4 -80 30 -13 26 -21 80 -11 80 18 0 84 -36 98 -53 l16 -22 6 25 c11 48
23 265 15 274 -4 5 -18 -4 -31 -19 -23 -26 -120 -61 -139 -50 -8 5 2 48 21 96
12 28 58 59 87 59 11 0 28 -9 38 -20 10 -11 21 -18 24 -15 12 7 -6 138 -29
205 -29 87 -63 142 -134 218 -54 57 -178 152 -222 169 -9 3 -26 15 -39 27 -13
12 -37 33 -54 47 -49 42 -36 55 17 16 26 -20 83 -55 127 -78 104 -54 215 -126
215 -139 0 -5 7 -10 15 -10 22 0 19 75 -4 127 -11 23 -43 76 -72 119 -29 43
-61 100 -71 126 -19 52 -25 123 -8 113 6 -3 10 -13 10 -21 0 -25 56 -130 120
-225 39 -59 60 -100 60 -120 0 -22 5 -29 19 -29 15 0 21 8 23 32 2 26 10 36
38 50 19 9 46 17 59 18 20 0 22 -3 16 -27 -18 -75 -67 -119 -104 -96 -26 16
-30 9 -21 -35 4 -20 11 -58 15 -84 7 -50 19 -62 30 -28 14 43 114 65 180 40
l26 -10 -18 -31 c-10 -17 -33 -45 -52 -61 -32 -28 -38 -30 -88 -24 l-53 6 16
-37 c23 -53 37 -159 40 -293 2 -63 3 -125 3 -137 1 -35 19 -28 39 15 9 20 48
78 87 127 109 141 118 163 118 264 -1 168 -42 261 -184 419 -71 79 -139 172
-139 191 0 6 6 11 14 11 11 0 13 10 9 41 -6 38 -3 42 52 96 41 40 60 52 68 44
16 -16 22 -129 7 -155 -16 -31 -66 -59 -90 -51 -38 12 -20 -14 83 -122 132
-140 160 -175 202 -264 63 -133 70 -258 20 -366 -13 -29 -24 -57 -24 -61 0 -4
15 -6 35 -4 36 4 140 -24 150 -40 8 -13 -24 -46 -73 -75 -61 -36 -123 -21
-144 35 -5 13 -13 21 -18 17 -14 -8 -151 -213 -151 -225 0 -20 27 -9 48 19 13
18 33 30 53 33 31 5 144 -14 156 -25 7 -8 -27 -54 -75 -100 -29 -28 -51 -40
-81 -44 -38 -5 -44 -3 -75 31 -23 23 -37 32 -42 25 -4 -6 -7 -53 -7 -103 0
-90 19 -166 42 -166 31 0 328 414 398 555 53 107 65 269 29 386 -16 53 -92
209 -142 291 -90 148 -153 331 -139 404 8 45 36 104 48 104 5 0 6 -8 2 -17z
m1508 -41 c22 -19 23 -70 1 -79 -33 -13 -68 11 -85 57 -9 25 -15 48 -13 52 6
10 76 -12 97 -30z m-450 -28 c26 -16 47 -33 47 -39 0 -13 -67 -51 -107 -59
-37 -9 -91 13 -111 44 -9 15 -9 26 -1 44 25 53 93 57 172 10z m207 -46 c0 -30
-6 -41 -26 -55 -26 -16 -27 -16 -45 6 -27 33 -24 55 13 96 l31 37 13 -24 c7
-13 13 -40 14 -60z m-1778 25 c23 -20 25 -91 3 -99 -32 -13 -78 73 -55 101 16
19 29 19 52 -2z m-719 -18 c47 -32 67 -72 67 -130 0 -49 -24 -113 -46 -122
-30 -11 -108 53 -124 103 -9 27 -7 43 17 103 15 39 32 71 38 71 6 0 27 -11 48
-25z m854 3 c44 -41 22 -124 -26 -98 -22 11 -27 50 -15 98 8 27 12 27 41 0z
m1100 -24 c-3 -3 -12 -4 -19 -1 -8 3 -5 6 6 6 11 1 17 -2 13 -5z m-1417 -133
c0 -62 -3 -72 -29 -100 -33 -35 -74 -41 -103 -14 -38 34 -19 93 46 143 76 59
86 55 86 -29z m857 28 c-7 -51 -42 -91 -76 -87 -60 7 -53 79 12 108 64 29 71
27 64 -21z m-237 -38 c0 -88 -4 -98 -51 -122 -57 -29 -89 -7 -89 60 0 34 22
65 73 102 61 44 67 40 67 -40z m1125 30 c3 -10 2 -27 -1 -37 -8 -22 -54 -63
-71 -64 -21 0 -26 60 -8 100 16 36 19 38 46 28 15 -5 31 -18 34 -27z m-1454
-61 c-14 -47 -41 -66 -71 -50 -38 20 -21 65 35 93 40 21 51 8 36 -43z m1274
38 c29 -13 55 -65 55 -109 0 -35 -12 -36 -65 -6 -34 19 -40 28 -43 60 -2 21 2
45 9 53 14 17 12 17 44 2z m-1803 -15 c50 -45 -13 -123 -88 -108 -39 7 -104
42 -104 56 0 5 21 23 47 39 54 34 115 40 145 13z m1706 -5 c7 -7 12 -26 12
-43 0 -42 -34 -73 -99 -90 -46 -12 -53 -12 -58 2 -9 22 15 84 45 116 28 29 78
37 100 15z m407 -108 c54 -26 78 -76 59 -124 -10 -25 -76 -21 -101 7 -21 21
-43 84 -43 120 0 23 33 22 85 -3z m-1770 -22 c-4 -18 -13 -43 -21 -55 -18 -29
-60 -31 -69 -3 -10 31 2 55 38 73 50 25 60 22 52 -15z m903 -22 c2 -35 -2 -53
-15 -68 -46 -51 -93 -42 -93 18 0 28 8 42 38 70 50 46 66 41 70 -20z m246 11
c41 -38 46 -48 46 -85 0 -40 -25 -82 -49 -82 -68 0 -113 101 -81 184 13 36 30
33 84 -17z m-1558 -63 c-12 -62 -86 -84 -86 -25 0 35 10 48 50 65 40 16 45 11
36 -40z m2956 18 c126 -58 172 -130 134 -208 -45 -96 -191 -44 -223 79 -15 56
-17 167 -3 167 5 0 47 -17 92 -38z m-3171 -23 c43 -30 80 -80 77 -102 -4 -26
-67 -59 -113 -59 -46 0 -75 20 -124 85 -43 58 -42 63 22 89 49 20 98 16 138
-13z m417 -8 c9 -5 25 -12 35 -15 39 -12 3 -102 -53 -131 -44 -23 -75 -22
-147 5 l-62 22 16 32 c9 17 31 46 50 64 30 28 41 32 89 32 30 0 62 -4 72 -9z
m1559 -72 c-6 -49 -41 -89 -76 -89 -61 0 -58 75 3 103 76 35 80 34 73 -14z
m-1413 -15 c42 -16 38 -88 -7 -117 -18 -11 -102 -37 -121 -37 -11 0 -6 48 9
83 24 58 74 88 119 71z m1572 -57 c21 -18 28 -35 32 -75 2 -29 2 -52 0 -52
-10 0 -74 34 -90 48 -21 18 -25 88 -5 95 24 10 36 7 63 -16z m585 -19 c16 -18
29 -36 29 -40 0 -17 -54 -48 -74 -42 -21 6 -96 72 -96 85 0 7 63 26 93 28 10
1 31 -14 48 -31z m1075 -10 c27 -18 56 -46 64 -63 31 -62 7 -185 -36 -185 -36
0 -94 44 -114 86 l-21 42 23 76 c13 42 26 76 29 76 4 0 29 -15 55 -32z m-3823
-75 c75 -98 92 -146 77 -204 -11 -41 -60 -89 -91 -89 -30 0 -85 46 -104 87
-12 25 -16 49 -11 79 6 46 64 184 77 184 4 0 28 -26 52 -57z m3153 -30 c7 -61
6 -63 -29 -98 -39 -39 -66 -44 -89 -17 -41 46 -29 96 39 160 57 52 70 45 79
-45z m-3370 45 c37 -45 57 -95 49 -127 -24 -96 -130 -73 -129 28 0 39 32 131
44 131 5 0 21 -15 36 -32z m523 -4 c18 -9 50 -33 72 -54 33 -31 39 -43 39 -78
0 -44 -26 -82 -54 -82 -50 0 -86 36 -93 95 -8 73 -10 110 -6 122 6 16 4 16 42
-3z m263 -83 c15 -25 28 -57 28 -72 0 -31 -44 -89 -67 -89 -27 0 -73 56 -73
89 0 31 25 105 43 129 13 16 31 1 69 -57z m-933 -13 c18 -13 42 -40 54 -60
l20 -37 -27 -35 c-29 -38 -73 -53 -127 -42 -35 7 -169 96 -169 112 0 9 94 58
150 77 33 12 69 6 99 -15z m1169 -77 c-5 -93 -26 -135 -80 -163 -73 -38 -138
9 -123 88 8 47 39 78 115 119 93 50 93 49 88 -44z m628 24 c43 -28 58 -99 28
-129 -37 -38 -116 -1 -130 61 -3 15 -10 43 -15 62 -4 19 -6 38 -3 42 6 10 87
-14 120 -36z m-293 -12 c-8 -51 -27 -95 -51 -116 -24 -22 -90 -26 -103 -6 -17
28 -10 84 14 107 25 24 89 50 124 51 20 1 21 -3 16 -36z m1837 -2 c13 -10 27
-32 31 -49 5 -27 3 -31 -20 -35 -45 -9 -81 24 -95 86 -7 28 -6 29 26 22 18 -4
44 -14 58 -24z m-1100 -21 c51 -64 56 -115 18 -160 -34 -39 -83 -20 -107 42
-8 21 -6 40 9 83 31 91 34 92 80 35z m1485 -10 c14 -13 25 -31 25 -41 0 -10 5
-21 10 -24 19 -12 10 -53 -16 -74 -34 -27 -87 -27 -129 -1 -41 25 -118 127
-111 145 6 16 57 23 138 21 45 -2 63 -7 83 -26z m-3179 -7 c4 -16 11 -33 16
-40 5 -6 10 -33 11 -58 2 -40 -2 -50 -26 -71 -34 -29 -61 -30 -87 -4 -39 39
-23 103 43 178 27 29 35 28 43 -5z m-737 -79 c27 -35 27 -40 -8 -75 -21 -20
-39 -29 -63 -29 -38 0 -123 40 -123 57 0 7 20 26 45 42 61 40 120 42 149 5z
m367 1 c16 -25 16 -101 0 -137 -6 -14 6 -24 63 -52 38 -20 85 -49 104 -66 65
-57 70 -163 10 -210 -52 -40 -127 -14 -167 60 -20 38 -26 63 -29 138 -2 51 -8
92 -13 92 -5 -1 -33 -17 -62 -37 -39 -27 -55 -34 -64 -25 -15 15 -15 171 0
200 33 59 129 82 158 37z m-584 -74 c15 -25 28 -56 28 -68 0 -34 -26 -80 -50
-88 -38 -12 -90 36 -90 84 0 27 27 108 43 129 13 16 31 1 69 -57z m1258 -18
c40 -53 46 -103 17 -146 -21 -32 -55 -35 -88 -8 -20 16 -24 28 -23 73 1 57 31
139 48 132 6 -3 27 -26 46 -51z m-1471 -41 c42 -21 69 -56 77 -100 6 -29 2
-37 -34 -72 -52 -49 -111 -61 -176 -36 -43 16 -176 120 -183 142 -3 9 67 40
177 77 33 12 107 6 139 -11z m4146 -34 c-12 -55 -29 -82 -58 -92 -34 -12 -61
1 -65 33 -5 29 32 68 72 80 54 16 58 14 51 -21z m-3708 -93 c27 -31 30 -71 6
-97 -20 -22 -33 -23 -75 -2 -24 11 -39 30 -56 67 -12 29 -22 56 -22 61 0 5 28
6 62 3 51 -5 67 -10 85 -32z m2153 -100 c0 -28 -27 -65 -47 -65 -9 0 -27 10
-40 22 -25 24 -31 76 -13 124 l11 27 44 -43 c25 -24 45 -53 45 -65z m2445 14
c8 -15 15 -45 15 -66 0 -45 -38 -127 -61 -131 -24 -4 -82 40 -102 78 -23 45
-17 85 23 155 l32 55 39 -31 c22 -17 46 -44 54 -60z m-995 71 c0 -5 -4 -10 -9
-10 -5 0 -6 -20 -4 -44 5 -40 3 -45 -30 -70 -43 -33 -57 -27 -57 23 0 43 13
63 55 90 35 23 45 25 45 11z m-3871 -66 c29 -36 28 -102 -1 -139 -31 -39 -140
-117 -150 -107 -4 4 -11 41 -14 82 -8 91 9 140 58 170 46 28 82 26 107 -6z
m1005 -21 c29 -84 16 -146 -34 -173 -43 -23 -100 39 -86 93 6 26 83 127 96
127 4 0 15 -21 24 -47z m2959 -64 c30 -16 37 -28 37 -71 0 -30 -6 -42 -37 -67
-30 -25 -47 -31 -83 -31 -65 1 -156 25 -152 40 5 22 76 103 107 122 34 20 96
24 128 7z m-2810 -63 c22 -33 37 -66 37 -84 0 -38 -35 -82 -64 -82 -33 0 -76
43 -76 76 0 37 40 144 54 144 6 0 28 -25 49 -54z m3998 -3 c32 -31 59 -59 59
-63 0 -4 -8 -11 -17 -14 -10 -4 -34 -16 -53 -26 -19 -11 -48 -20 -64 -20 -60
0 -156 66 -156 106 0 8 19 27 42 44 31 23 52 30 85 30 40 0 50 -5 104 -57z
m-3721 27 c51 -51 -1 -113 -114 -134 l-39 -7 7 31 c11 57 38 102 70 116 42 18
53 17 76 -6z m3166 -5 c105 -59 124 -83 124 -158 0 -68 -52 -101 -113 -72 -49
23 -73 75 -80 173 -7 95 -4 98 69 57z m-3902 -38 c37 -54 44 -89 25 -130 -25
-56 -94 -49 -119 13 -11 26 -9 40 10 100 12 39 28 70 35 70 7 0 29 -24 49 -53z
m1783 -84 c-9 -55 -37 -87 -79 -91 -32 -3 -36 0 -41 25 -8 39 14 68 65 86 60
22 61 21 55 -20z m2486 -41 c62 -62 57 -72 -37 -79 -73 -6 -110 9 -126 53 -12
32 -21 30 -43 -7 -10 -18 -20 -29 -23 -26 -11 11 6 43 46 83 38 40 41 41 86
34 37 -6 55 -16 97 -58z m-5002 -38 c34 -51 37 -94 8 -135 -26 -37 -53 -37
-91 1 -26 27 -30 36 -25 69 2 21 14 59 26 86 24 54 31 53 82 -21z m4525 -20
c43 -76 48 -130 17 -172 -64 -86 -157 -52 -157 58 0 35 10 61 43 118 23 40 46
70 51 67 5 -3 26 -35 46 -71z m-3692 14 c8 -32 8 -35 -10 -53 -12 -12 -19 -13
-30 -4 -18 15 -18 29 2 57 19 28 30 28 38 0z m3471 -59 c41 -36 44 -54 13 -63
-67 -17 -128 7 -128 52 0 50 63 56 115 11z m1015 18 c0 -7 -7 -37 -15 -65 -21
-68 -67 -101 -154 -109 -71 -7 -77 0 -66 74 5 34 16 56 40 80 32 32 36 33 114
33 60 0 81 -3 81 -13z m-3142 -54 c45 -58 54 -82 48 -117 -4 -18 -17 -43 -31
-56 -21 -20 -28 -22 -49 -12 -39 17 -60 57 -53 98 8 46 37 124 48 124 4 0 21
-17 37 -37z m-2382 6 c55 -27 70 -109 23 -124 -12 -4 -38 -2 -58 5 -31 10 -40
20 -59 66 -12 30 -22 59 -22 66 0 14 76 6 116 -13z m5248 -98 c10 -46 -6 -91
-32 -91 -24 0 -52 31 -52 56 0 26 47 87 64 81 6 -2 15 -23 20 -46z m-5369 3
c96 -36 98 -141 3 -190 -57 -29 -87 -23 -275 53 -25 10 -13 31 40 71 108 83
155 96 232 66z m520 -69 c47 -57 56 -109 25 -147 -37 -48 -96 -32 -115 30 -7
25 31 162 46 162 4 0 24 -20 44 -45z m1565 -9 c0 -56 -27 -173 -45 -199 -39
-55 -134 -77 -169 -38 -39 43 -29 146 18 190 20 19 168 91 189 91 4 0 7 -20 7
-44z m597 -7 c-6 -46 -28 -75 -62 -81 -34 -7 -55 9 -55 41 0 38 52 78 104 80
16 1 18 -4 13 -40z m-1979 2 c34 -47 37 -74 9 -107 -24 -27 -25 -28 -51 -11
-31 21 -35 70 -11 117 19 37 26 37 53 1z m-406 -101 c50 -14 112 -72 104 -98
-6 -18 -2 -19 61 -15 88 6 109 -7 99 -62 -5 -26 -21 -52 -47 -78 l-40 -40 -76
7 c-43 3 -81 10 -85 14 -4 4 -1 25 7 47 21 61 21 62 -37 58 -52 -4 -54 -4
-113 51 l-60 55 25 20 c61 49 98 58 162 41z m4236 -27 c27 -39 35 -69 23 -91
-22 -42 -63 -34 -82 15 -9 24 15 103 31 103 5 0 17 -12 28 -27z m1071 -46 c14
-45 13 -49 -6 -75 -26 -35 -57 -40 -77 -10 -9 12 -16 27 -16 34 0 19 62 105
73 101 7 -2 18 -25 26 -50z m-1444 28 c72 -12 115 -26 115 -37 0 -15 -66 -87
-109 -119 -55 -41 -124 -42 -170 -3 -41 34 -41 72 -1 117 29 34 81 58 110 51
8 -1 33 -6 55 -9z m-4209 -36 c46 -43 20 -125 -55 -176 -28 -19 -46 -23 -110
-22 -82 1 -123 9 -128 24 -5 19 112 168 147 187 46 25 112 19 146 -13z m5468
-11 c11 -41 6 -95 -9 -108 -21 -17 -47 -9 -64 22 -14 24 -13 29 13 67 32 46
51 52 60 19z m436 -29 c38 -18 70 -35 70 -40 0 -13 -72 -68 -118 -90 -49 -24
-99 -20 -144 13 -46 32 -36 102 20 132 43 24 96 19 172 -15z m-5745 -39 c3
-11 11 -20 16 -20 5 0 14 -11 19 -25 10 -27 -3 -78 -29 -109 -30 -36 -134
-107 -143 -98 -16 16 -22 146 -8 186 22 66 129 115 145 66z m3628 -1 c59 -30
86 -57 93 -96 15 -77 -63 -113 -119 -55 -25 26 -47 101 -47 160 0 18 25 15 73
-9z m592 -41 c29 -62 31 -95 8 -128 -22 -32 -33 -40 -60 -40 -34 0 -63 34 -63
74 0 33 64 146 83 146 4 0 19 -24 32 -52z m546 23 c18 -14 24 -29 24 -60 0
-75 -57 -111 -197 -126 -71 -8 -71 -5 -22 94 40 81 77 111 135 111 21 0 47 -8
60 -19z m674 -92 c15 -14 36 -104 28 -113 -7 -6 -75 23 -95 42 -17 15 -25 72
-12 85 11 11 64 1 79 -14z m-2580 -72 c47 -27 64 -64 47 -103 -11 -22 -17 -25
-40 -20 -37 9 -58 37 -66 86 -6 40 -2 60 12 60 4 0 25 -10 47 -23z m-1545 -12
c42 -26 54 -66 26 -82 -7 -4 -19 -18 -25 -31 -7 -13 -24 -28 -39 -33 -45 -18
-126 -38 -134 -33 -4 3 -16 0 -27 -6 -30 -16 -33 3 -10 56 33 76 85 134 119
134 16 0 32 5 35 10 9 14 10 13 55 -15z m1215 -101 c29 -19 39 -42 24 -60 -19
-23 -53 -16 -95 21 -32 29 -36 37 -24 45 23 15 68 12 95 -6z m2722 -20 c56
-43 103 -85 103 -94 0 -10 -99 -47 -152 -58 -60 -12 -118 12 -148 60 -27 44
-25 60 9 97 26 27 35 31 84 31 48 0 62 -5 104 -36z m-4617 -11 c0 -20 -28 -53
-47 -53 -16 0 -17 42 -1 58 18 18 48 15 48 -5z m4313 -20 c-7 -2 -21 -2 -30 0
-10 3 -4 5 12 5 17 0 24 -2 18 -5z m-2267 -28 c10 -39 -4 -73 -36 -90 -39 -20
-38 -20 -46 20 -12 65 66 133 82 70z m1411 0 c20 -14 52 -110 40 -122 -12 -11
-75 19 -95 47 -26 35 -27 48 -5 72 20 22 32 23 60 3z m894 -25 c10 -6 24 -20
31 -33 11 -20 37 -126 38 -154 0 -18 -109 -4 -146 18 -37 23 -74 94 -74 143
l0 34 66 1 c36 0 74 -4 85 -9z m-5015 -75 c99 -29 150 -123 108 -200 -15 -29
-25 -35 -66 -40 -68 -10 -108 2 -152 44 -32 31 -116 176 -116 203 0 14 173 9
226 -7z m449 -105 c3 -5 -7 -12 -22 -15 -15 -4 -37 -10 -48 -15 -11 -5 -31
-12 -45 -15 -38 -10 -164 -58 -177 -67 -6 -5 -14 -5 -17 1 -4 6 8 18 25 27 50
25 196 74 223 74 14 0 28 5 31 10 8 13 22 13 30 0z m212 -15 c7 -20 -24 -55
-49 -55 -20 0 -23 21 -8 51 13 23 48 25 57 4z m4763 -25 c0 -48 -25 -87 -65
-100 -42 -14 -55 -7 -55 30 0 46 10 61 54 81 57 26 66 24 66 -11z m-4900 -33
c14 -26 14 -29 -4 -43 -32 -23 -63 -17 -90 19 -38 50 -34 59 26 55 46 -3 54
-7 68 -31z m5016 -92 c28 -18 125 -165 118 -177 -3 -4 -47 -8 -97 -8 -109 0
-144 16 -177 81 -27 52 -20 83 23 110 37 23 92 21 133 -6z m-5626 0 c30 -15
47 -53 37 -79 -9 -23 -56 -49 -88 -49 -31 0 -149 51 -149 64 0 15 115 79 143
79 15 0 41 -7 57 -15z m5343 -4 c4 -4 10 -32 14 -61 6 -48 4 -53 -11 -47 -10
4 -21 7 -26 7 -5 0 -22 12 -39 26 -24 20 -31 34 -31 61 l0 36 43 -7 c23 -4 45
-11 50 -15z m-4935 -7 c29 -20 28 -56 -2 -91 -22 -26 -30 -28 -86 -26 -35 1
-67 6 -73 12 -14 14 48 90 87 107 40 17 47 17 74 -2z m140 -6 c22 -22 14 -65
-19 -92 -46 -39 -59 -34 -59 21 0 67 43 106 78 71z m4587 -128 c10 -16 -111
-192 -151 -219 -27 -19 -50 -25 -90 -25 -51 -1 -56 2 -89 39 -30 33 -35 44
-29 70 13 62 53 114 104 134 34 13 247 14 255 1z m-5107 -26 c12 -8 29 -28 37
-44 19 -37 19 -123 0 -159 -14 -28 -160 -171 -175 -171 -4 0 -15 30 -23 68
-38 157 -32 225 25 279 50 46 95 56 136 27z m1227 -9 c37 -13 70 -27 74 -31 8
-8 -86 -90 -128 -110 -47 -22 -105 -13 -142 22 -44 43 -36 88 24 124 43 26 90
25 172 -5z m-532 -37 c20 -25 27 -43 27 -75 0 -58 -30 -164 -49 -171 -18 -7
-90 70 -115 123 -24 51 -14 107 26 141 39 32 72 26 111 -18z m-409 -109 c50
-40 23 -109 -44 -109 -24 0 -130 65 -130 80 0 13 84 49 116 50 17 0 43 -9 58
-21z m1384 -14 c15 -9 39 -33 53 -53 34 -48 92 -183 82 -192 -15 -13 -204 10
-243 30 -46 24 -86 70 -95 110 -10 47 12 99 49 116 38 17 115 12 154 -11z
m-872 -62 c-10 -10 -19 5 -10 18 6 11 8 11 12 0 2 -7 1 -15 -2 -18z m3659 -36
c53 -30 59 -71 18 -117 -39 -44 -91 -49 -183 -20 -39 12 -73 27 -76 32 -8 13
40 62 95 99 53 35 92 37 146 6z m354 -71 c14 -21 21 -50 21 -80 0 -44 -3 -51
-57 -102 -32 -30 -62 -53 -67 -51 -19 6 -56 90 -56 125 0 46 25 95 67 132 40
35 59 30 92 -24z m-3811 31 c44 -53 9 -109 -82 -133 -32 -8 -60 -13 -63 -11
-8 9 9 75 28 106 28 45 93 67 117 38z m-741 -18 c7 -6 18 -28 24 -49 10 -32 9
-44 -7 -76 -34 -68 -60 -79 -184 -79 -60 0 -111 3 -115 7 -8 7 82 144 113 171
47 42 133 55 169 26z m260 -34 c34 -20 63 -40 63 -45 0 -17 -99 -60 -138 -60
-43 0 -92 36 -92 67 1 34 45 72 84 73 11 0 48 -16 83 -35z m672 26 c29 -19
-29 -56 -61 -39 -21 10 -24 34 -5 41 20 9 51 7 66 -2z m-431 -68 c20 -28 14
-67 -15 -95 -31 -30 -156 -59 -174 -41 -20 20 49 137 89 152 35 13 84 5 100
-16z m329 -15 c-3 -8 -6 -5 -6 6 -1 11 2 17 5 13 3 -3 4 -12 1 -19z m3900 -10
c32 -36 43 -63 43 -110 0 -40 -5 -49 -58 -101 -32 -31 -61 -57 -65 -57 -3 0
-18 22 -32 50 -40 80 -31 137 33 203 42 43 51 45 79 15z m-4632 -163 c5 -33 4
-37 -6 -21 -17 28 -41 138 -33 155 7 16 27 -52 39 -134z m3736 125 c40 -22 16
-109 -42 -151 -28 -19 -39 -21 -106 -15 -41 3 -78 8 -83 11 -9 6 25 104 43
122 39 39 142 57 188 33z m-3050 -20 c26 -15 26 -73 -2 -98 -21 -20 -126 -55
-140 -46 -8 5 11 69 33 111 17 35 74 51 109 33z m4344 -21 c7 -7 0 -19 -24
-39 -42 -36 -61 -40 -100 -24 -43 18 -42 57 3 81 21 11 104 -1 121 -18z
m-4010 -11 c39 -47 32 -120 -20 -205 -20 -35 -41 -63 -45 -63 -10 0 -63 94
-79 139 -16 47 -5 93 31 130 41 42 78 41 113 -1z m-816 -61 c30 -18 56 -37 58
-43 5 -15 -100 -64 -136 -64 -20 0 -42 10 -63 29 -29 26 -32 32 -23 57 11 32
47 54 85 53 14 0 49 -14 79 -32z m227 -11 c9 -24 -15 -57 -53 -72 -40 -17 -48
-14 -39 14 18 56 78 94 92 58z m1184 -87 c39 -24 69 -48 67 -54 -2 -5 -31 -25
-66 -43 -80 -43 -137 -45 -186 -7 -45 33 -54 68 -28 103 48 65 108 65 213 1z
m3207 15 c21 -21 24 -32 20 -61 -14 -86 -79 -106 -244 -77 -19 4 -33 12 -33
21 0 8 28 43 63 79 62 63 64 64 115 64 43 0 58 -5 79 -26z m-1328 -20 c12 -15
21 -36 21 -48 -1 -26 -50 -118 -67 -123 -14 -5 -63 87 -63 118 0 11 9 34 21
50 26 37 61 38 88 3z m-3320 -89 c30 -15 54 -62 66 -128 7 -35 6 -37 -18 -37
-38 0 -112 35 -131 61 -17 24 -21 76 -8 95 17 25 53 29 91 9z m598 -45 c15 0
73 -68 78 -91 7 -30 -21 -169 -34 -169 -3 0 -30 14 -58 30 -68 39 -86 74 -81
156 5 78 18 96 61 83 18 -5 33 -9 34 -9z m-802 -10 c39 -20 75 -75 75 -116 0
-41 -36 -69 -89 -69 -52 0 -86 30 -126 109 -50 98 -49 99 38 94 39 -2 85 -10
102 -18z m1360 -58 c54 -38 72 -75 51 -107 -9 -13 -34 -29 -55 -36 -57 -17
-104 -5 -138 36 -42 51 -73 93 -73 98 0 4 52 27 90 41 29 10 85 -4 125 -32z
m3384 13 c32 -16 41 -33 41 -74 0 -40 -33 -77 -85 -97 -42 -15 -51 -16 -131
-1 -48 9 -89 18 -91 21 -8 8 75 108 114 139 42 31 106 37 152 12z m-1160 -36
c61 -21 69 -83 17 -135 -33 -33 -49 -38 -121 -35 -52 3 -125 23 -125 34 0 18
80 107 114 128 35 22 69 24 115 8z m350 -80 c37 -13 51 -35 51 -82 0 -42 -42
-83 -93 -92 -46 -8 -171 18 -175 36 -4 20 86 119 122 135 38 16 55 17 95 3z
m-3291 -15 c42 -29 55 -71 48 -148 -8 -89 -15 -116 -30 -116 -7 0 -40 25 -74
55 -65 59 -79 91 -67 151 12 66 71 94 123 58z m-541 -53 c13 -26 0 -65 -30
-89 -17 -15 -114 -41 -122 -34 -9 10 -5 41 12 83 26 67 114 92 140 40z m1463
-7 c32 -19 60 -72 60 -113 0 -35 -21 -144 -29 -153 -11 -12 -122 83 -143 122
-25 45 -18 94 18 132 32 32 54 35 94 12z m-1190 -14 c58 -31 41 -98 -37 -148
-27 -18 -53 -32 -56 -32 -4 0 -7 31 -7 68 0 58 3 72 23 89 18 17 36 28 55 32
2 1 12 -4 22 -9z m983 -11 c30 -16 37 -28 37 -66 0 -51 -43 -92 -115 -109 -66
-15 -141 -18 -149 -6 -10 16 70 147 104 170 36 24 89 29 123 11z m4077 -2849
l0 -280 -45 0 -45 0 0 280 0 280 45 0 45 0 0 -280z m260 0 l0 -280 -45 0 -45
0 0 280 0 280 45 0 45 0 0 -280z m-5250 215 l0 -35 -55 0 -55 0 0 35 0 35 55
0 55 0 0 -35z m4020 -40 l0 -55 90 0 90 0 0 -30 0 -30 -90 0 -90 0 0 -119 c0
-156 7 -166 109 -165 l71 1 0 -29 c0 -35 -23 -42 -120 -36 -75 4 -114 24 -137
69 -8 15 -13 70 -13 152 l0 127 -30 0 c-27 0 -30 3 -30 30 0 27 3 30 30 30 30
0 30 1 30 55 l0 55 45 0 45 0 0 -55z m-5568 -55 c77 -22 128 -89 128 -170 l0
-40 -196 0 -196 0 7 -27 c18 -76 74 -108 185 -107 66 1 102 9 173 39 15 6 17
1 17 -33 0 -39 -2 -42 -37 -52 -21 -6 -79 -14 -129 -17 -191 -12 -304 64 -304
204 1 92 54 163 146 197 46 17 154 20 206 6z m621 -4 c18 -7 43 -26 57 -40 24
-27 25 -33 28 -192 l3 -164 -45 0 -45 0 -3 150 c-3 140 -4 151 -26 172 -31 31
-128 31 -189 -1 l-43 -21 0 -150 0 -150 -45 0 -45 0 0 200 0 200 45 0 c37 0
45 -3 45 -19 0 -18 3 -18 58 5 66 27 155 32 205 10z m1808 3 c85 -26 149 -111
149 -199 0 -88 -64 -173 -149 -199 -54 -16 -149 -14 -203 4 -52 18 -105 66
-124 112 -18 41 -18 125 0 166 18 45 72 94 120 111 50 18 155 20 207 5z m642
-3 c18 -7 43 -26 57 -40 24 -27 25 -33 28 -192 l3 -164 -45 0 -45 0 -3 150
c-3 140 -4 151 -26 172 -31 31 -128 31 -189 -1 l-43 -21 0 -150 0 -150 -45 0
-45 0 0 200 0 200 45 0 c37 0 45 -3 45 -19 0 -18 3 -18 58 5 66 27 155 32 205
10z m604 3 c15 -6 37 -19 49 -30 21 -20 21 -20 74 8 74 38 171 44 234 14 68
-33 76 -60 76 -240 l0 -151 -45 0 -45 0 0 140 c0 83 -5 149 -11 164 -23 51
-117 58 -200 16 l-39 -20 0 -150 0 -150 -45 0 -45 0 0 128 c0 163 -9 197 -56
212 -41 14 -103 6 -154 -18 l-35 -17 -3 -153 -3 -152 -44 0 -45 0 0 200 0 200
45 0 c39 0 45 -3 45 -20 0 -20 1 -20 32 -4 18 9 44 20 58 25 38 11 125 10 157
-2z m915 1 c77 -22 128 -89 128 -170 l0 -40 -196 0 -196 0 7 -27 c18 -76 74
-108 185 -107 66 1 102 9 173 39 15 6 17 1 17 -33 0 -39 -2 -42 -37 -52 -21
-6 -79 -14 -129 -17 -191 -12 -304 64 -304 204 1 92 54 163 146 197 46 17 154
20 206 6z m621 -4 c18 -7 43 -26 57 -40 24 -27 25 -33 28 -192 l3 -164 -45 0
-45 0 -3 150 c-3 140 -4 151 -26 172 -31 31 -128 31 -189 -1 l-43 -21 0 -150
0 -150 -45 0 -45 0 0 200 0 200 45 0 c37 0 45 -3 45 -19 0 -18 3 -18 58 5 66
27 155 32 205 10z m950 3 c21 -5 52 -23 70 -39 l32 -28 3 -166 3 -166 -45 0
c-38 0 -46 3 -46 19 0 18 -3 18 -57 -5 -112 -46 -252 -23 -288 47 -8 15 -15
44 -15 64 0 77 85 120 262 132 106 7 113 12 78 56 -33 42 -148 46 -277 11 -21
-6 -23 -3 -23 30 0 29 4 37 23 40 12 3 31 7 42 9 42 9 202 6 238 -4z m-5175
-155 l79 -157 35 64 c20 35 57 106 82 157 l46 92 45 0 c25 0 45 -3 45 -6 0 -3
-46 -93 -102 -200 l-103 -194 -47 0 c-53 0 -41 -16 -182 253 l-78 147 51 0 50
0 79 -156z m552 -44 l0 -200 -45 0 -45 0 0 200 0 200 45 0 45 0 0 -200z m270
175 c0 -14 2 -25 4 -25 2 0 28 11 58 25 38 18 70 25 116 25 l62 0 0 -38 0 -38
-77 0 c-58 0 -89 -5 -118 -19 l-40 -20 -3 -143 -3 -142 -44 0 -45 0 0 200 0
200 45 0 c41 0 45 -2 45 -25z m5287 -121 l80 -146 25 44 c14 23 51 89 82 146
l57 102 45 0 c24 0 44 -3 44 -6 0 -3 -68 -127 -151 -275 l-151 -269 -50 0 -50
0 20 33 c11 17 34 55 50 83 l30 52 -80 143 c-44 79 -91 165 -104 192 l-24 47
49 0 49 0 79 -146z m-6707 -944 l0 -100 -235 0 -235 0 0 -95 0 -95 220 0 221
0 -3 -97 -3 -98 -217 -3 -218 -2 0 -215 0 -215 -130 0 -130 0 0 510 0 510 365
0 365 0 0 -100z m844 71 c74 -29 147 -99 164 -157 15 -52 16 -161 0 -205 -19
-58 -67 -118 -124 -156 -30 -20 -54 -39 -54 -42 0 -3 48 -67 106 -141 58 -74
132 -170 165 -212 l60 -78 -163 0 -163 1 -135 184 -135 185 -62 0 -63 0 0
-185 0 -185 -130 0 -130 0 0 511 0 511 303 -4 c288 -4 305 -5 361 -27z m986
-61 l0 -90 -80 0 -80 0 0 -330 0 -330 80 0 80 0 0 -90 0 -90 -300 0 -300 0 0
90 0 90 85 0 85 0 0 330 0 330 -85 0 -85 0 0 90 0 90 300 0 300 0 0 -90z m950
-10 l0 -100 -240 0 -240 0 0 -85 0 -85 220 0 220 0 0 -100 0 -100 -220 0 -220
0 0 -125 0 -125 240 0 240 0 0 -100 0 -100 -370 0 -370 0 0 510 0 510 370 0
370 0 0 -100z m715 -184 l180 -284 3 284 2 284 125 0 125 0 0 -510 0 -511
-131 3 -131 3 -212 342 -211 342 -3 -345 -2 -344 -120 0 -120 0 0 510 0 510
158 0 157 0 180 -284z m1200 274 c207 -30 348 -134 417 -309 30 -76 33 -277 5
-361 -27 -79 -101 -185 -161 -230 -120 -91 -209 -109 -538 -110 l-238 0 0 510
0 510 223 0 c122 0 254 -5 292 -10z m915 -400 l0 -410 238 -2 237 -3 3 -97 3
-98 -371 0 -370 0 0 510 0 510 130 0 130 0 0 -410z m914 215 l109 -196 17 28
c9 16 56 103 106 195 l89 168 144 0 c132 0 143 -1 136 -17 -3 -10 -87 -151
-186 -314 l-179 -297 0 -196 0 -196 -130 0 -130 0 0 187 0 188 -190 317 c-104
174 -190 319 -190 322 0 3 66 6 148 6 l147 0 109 -195z"/>
<path d="M6095 10582 c-11 -11 8 -22 38 -22 51 0 60 -11 52 -60 -5 -28 -19
-56 -40 -79 -31 -33 -37 -36 -89 -35 -30 1 -71 5 -91 8 -31 6 -35 10 -30 29
16 54 43 94 79 117 45 29 33 36 -50 25 l-53 -6 6 -34 c5 -30 1 -39 -26 -64
-21 -20 -47 -32 -76 -37 -25 -3 -45 -11 -45 -18 0 -18 116 -90 269 -166 158
-78 209 -110 261 -165 19 -20 46 -46 59 -58 44 -40 167 -189 179 -217 8 -19
73 -90 147 -159 33 -31 74 -71 91 -88 17 -18 34 -33 37 -33 14 0 234 -176 303
-242 39 -37 73 -66 75 -63 10 9 -12 183 -32 250 -12 39 -25 86 -29 105 -21 85
-37 131 -48 142 -7 7 -12 19 -12 28 0 35 -117 180 -146 180 -8 0 -14 -9 -14
-19 0 -11 -10 -32 -23 -47 -20 -23 -30 -26 -77 -25 -96 3 -100 3 -100 11 0 19
76 91 103 98 17 4 32 12 34 17 1 6 -41 32 -95 60 -139 71 -216 150 -299 311
-67 130 -123 202 -176 227 -33 16 -173 38 -182 29z m265 -137 c18 -22 15 -63
-6 -87 -40 -44 -144 -67 -144 -30 1 30 37 99 61 116 29 20 73 21 89 1z m120
-270 c6 -31 9 -69 5 -85 -8 -37 -51 -72 -84 -68 -30 4 -65 60 -55 91 8 27 104
128 115 122 4 -3 13 -30 19 -60z m201 -257 c17 -66 3 -109 -45 -131 -38 -18
-39 -18 -62 4 -40 38 -29 91 30 141 45 40 63 36 77 -14z m259 -164 c11 -36 20
-89 20 -116 0 -44 -4 -54 -34 -84 -43 -43 -79 -45 -114 -6 -19 20 -27 40 -29
79 -3 48 0 55 32 87 19 20 35 38 35 41 0 13 45 65 56 65 7 0 22 -30 34 -66z"/>
<path d="M3805 5428 c-16 -6 -38 -18 -49 -27 -17 -15 -46 -63 -46 -76 0 -3 68
-5 150 -5 l150 0 0 24 c0 71 -111 117 -205 84z"/>
<path d="M6243 5419 c-96 -28 -122 -186 -43 -253 57 -48 171 -43 220 10 20 21
25 38 28 98 4 66 2 75 -23 104 -39 46 -109 62 -182 41z"/>
<path d="M8395 5428 c-16 -6 -38 -18 -49 -27 -17 -15 -46 -63 -46 -76 0 -3 68
-5 150 -5 l150 0 0 24 c0 71 -111 117 -205 84z"/>
<path d="M10030 5280 c-88 -8 -137 -30 -146 -64 -20 -79 116 -112 227 -55 38
19 39 21 39 74 0 62 13 58 -120 45z"/>
<path d="M4800 4164 l0 -136 108 3 c120 5 147 15 183 72 15 24 19 44 16 80 -8
89 -59 116 -219 117 l-88 0 0 -136z"/>
<path d="M8807 4293 c-4 -3 -7 -148 -7 -321 l0 -315 103 6 c167 9 242 48 293
154 24 48 28 69 28 147 1 50 -5 112 -13 139 -16 56 -78 130 -132 158 -55 28
-253 51 -272 32z"/>
</g>
</svg>
